<svg width="14" height="14" viewBox="0 0 14 14" fill="none" xmlns="http://www.w3.org/2000/svg">
<g clip-path="url(#clip0_60_202)">
<path d="M11.7994 1.25217C12.0391 1.0102 12.3649 0.872966 12.7055 0.870457C13.0461 0.867949 13.3738 1.00037 13.6171 1.23878C13.8604 1.4772 13.9994 1.80221 14.0037 2.1428C14.0081 2.48339 13.8774 2.81186 13.6404 3.05642L6.78036 11.6323C6.66251 11.7592 6.5203 11.861 6.36222 11.9317C6.20414 12.0024 6.03343 12.0406 5.86029 12.0438C5.68715 12.0471 5.51513 12.0154 5.35449 11.9507C5.19386 11.886 5.04791 11.7896 4.92536 11.6673L0.377106 7.1208C0.135411 6.87899 -0.000326151 6.55107 -0.000244103 6.20918C-0.000162056 5.86729 0.135732 5.53943 0.377543 5.29774C0.619354 5.05604 0.947274 4.9203 1.28917 4.92039C1.63106 4.92047 1.95891 5.05636 2.20061 5.29817L5.79773 8.89617L11.7652 1.29242C11.7761 1.27859 11.7878 1.26544 11.8002 1.25305L11.7994 1.25217Z" fill="#89D09D"/>
</g>
<defs>
<clipPath id="clip0_60_202">
<rect width="14" height="14" fill="white"/>
</clipPath>
</defs>
</svg>
