<svg width="40" height="40" viewBox="0 0 40 40" fill="none" xmlns="http://www.w3.org/2000/svg">
<path d="M17.3633 4.04789C12.6931 4.11016 9.35766 6.87523 9.74844 11.2036C-3.93164 24.7966 6.44844 41.5389 16.2109 34.7412C34.5233 36.6862 41.2164 23.9441 36.0303 17.8759C30.7055 7.89859 23.0462 3.97211 17.3633 4.04789ZM20.1195 8.26664C24.79 8.22469 30.9191 11.0209 35.3003 17.1411C32.7481 14.8924 28.1834 13.9273 21.582 15.7422C39.8377 15.374 34.0048 34.6528 16.4404 34.5777C18.2845 33.222 20.0998 31.0181 21.7188 27.7831C10.6995 40.1167 1.08406 23.9812 9.83641 11.8628C10.3161 14.662 12.2963 18.0476 16.3598 21.7456C10.4409 13.173 14.0454 8.32109 20.1196 8.26672L20.1195 8.26664ZM21.7066 17.019C19.4857 16.9938 17.478 18.5284 16.9898 20.7837C16.4317 23.3612 18.0695 25.9045 20.6468 26.4626C23.2243 27.0204 25.7652 25.3827 26.3232 22.8052C26.881 20.2279 25.2434 17.6845 22.6659 17.1266C22.3506 17.0584 22.0292 17.0223 21.7066 17.019Z" fill="#6F6CF5"/>
</svg>
