<svg width="10" height="9" viewBox="0 0 10 9" fill="none" xmlns="http://www.w3.org/2000/svg">
    <path d="M9.75806 1.8216C9.6029 1.46514 9.37918 1.14211 9.09942 0.870605C8.81945 0.598292 8.48936 0.381889 8.12709 0.233163C7.75144 0.0783309 7.34854 -0.000920888 6.94177 8.07298e-06C6.3711 8.07298e-06 5.81432 0.155062 5.33047 0.447941C5.21472 0.518002 5.10475 0.594955 5.00057 0.678798C4.89639 0.594955 4.78643 0.518002 4.67067 0.447941C4.18682 0.155062 3.63005 8.07298e-06 3.05938 8.07298e-06C2.64845 8.07298e-06 2.25026 0.0781092 1.87406 0.233163C1.51059 0.382474 1.18301 0.597252 0.901724 0.870605C0.621595 1.1418 0.397821 1.46491 0.243083 1.8216C0.0821853 2.19258 0 2.58653 0 2.99197C0 3.37443 0.0787128 3.77298 0.234981 4.17842C0.365783 4.51724 0.553304 4.86869 0.792915 5.22359C1.17259 5.78523 1.69464 6.37099 2.34286 6.96479C3.41706 7.94909 4.48084 8.62903 4.52598 8.6566L4.80032 8.83117C4.92186 8.90813 5.07813 8.90813 5.19967 8.83117L5.47401 8.6566C5.51915 8.62788 6.58177 7.94909 7.65713 6.96479C8.30535 6.37099 8.8274 5.78523 9.20707 5.22359C9.44668 4.86869 9.63536 4.51724 9.76501 4.17842C9.92127 3.77298 9.99999 3.37443 9.99999 2.99197C10.0011 2.58653 9.91896 2.19258 9.75806 1.8216V1.8216Z" fill="#FF8585"/>
</svg>
